<mxfile host="Electron" modified="2023-06-11T07:36:32.750Z" agent="Mozilla/5.0 (Windows NT 10.0; Win64; x64) AppleWebKit/537.36 (KHTML, like Gecko) draw.io/21.2.8 Chrome/112.0.5615.165 Electron/24.2.0 Safari/537.36" etag="_RI_OkIz5xkd4SBpOLNQ" version="21.2.8" type="device">
  <diagram name="Page-1" id="VxqEKcWssq_XyiCzB9bS">
    <mxGraphModel dx="978" dy="571" grid="0" gridSize="10" guides="1" tooltips="1" connect="1" arrows="1" fold="1" page="1" pageScale="1" pageWidth="1654" pageHeight="1169" background="none" math="0" shadow="1">
      <root>
        <mxCell id="0" />
        <mxCell id="1" parent="0" />
        <mxCell id="7Op2JaMXb7pChXdJnSNb-1" value="UI" style="shape=umlLifeline;perimeter=lifelinePerimeter;whiteSpace=wrap;html=1;container=1;collapsible=0;recursiveResize=0;outlineConnect=0;rounded=1;shadow=0;comic=0;labelBackgroundColor=none;strokeWidth=1;fontFamily=Verdana;fontSize=12;align=center;fillColor=#dae8fc;strokeColor=#6c8ebf;" parent="1" vertex="1">
          <mxGeometry x="388" y="26" width="100" height="504" as="geometry" />
        </mxCell>
        <mxCell id="_dpJ-08PZt-rfk6sdK-W-1" value="&lt;div style=&quot;text-align: center;&quot;&gt;&lt;span style=&quot;font-family: Verdana;&quot;&gt;&amp;nbsp;1. List of flights return&amp;nbsp;&lt;/span&gt;&lt;/div&gt;&lt;font face=&quot;Verdana&quot;&gt;&lt;div style=&quot;text-align: center;&quot;&gt;&amp;nbsp; from search flight&amp;nbsp;&lt;/div&gt;&lt;/font&gt;" style="html=1;align=left;spacingLeft=2;endArrow=block;rounded=0;edgeStyle=orthogonalEdgeStyle;curved=0;rounded=0;verticalAlign=middle;" parent="7Op2JaMXb7pChXdJnSNb-1" edge="1">
          <mxGeometry x="-0.8997" y="-17" relative="1" as="geometry">
            <mxPoint x="61" y="62" as="sourcePoint" />
            <Array as="points">
              <mxPoint x="91" y="62" />
              <mxPoint x="91" y="96" />
            </Array>
            <mxPoint x="55" y="96.0344827586207" as="targetPoint" />
            <mxPoint as="offset" />
          </mxGeometry>
        </mxCell>
        <mxCell id="7Op2JaMXb7pChXdJnSNb-2" value="" style="html=1;points=[];perimeter=orthogonalPerimeter;rounded=0;shadow=0;comic=0;labelBackgroundColor=none;strokeWidth=1;fontFamily=Verdana;fontSize=12;align=center;fillColor=#dae8fc;strokeColor=#6c8ebf;" parent="7Op2JaMXb7pChXdJnSNb-1" vertex="1">
          <mxGeometry x="45" y="60" width="10" height="420" as="geometry" />
        </mxCell>
        <mxCell id="7Op2JaMXb7pChXdJnSNb-38" value="&amp;nbsp;13. selectSeat()" style="html=1;verticalAlign=middle;endArrow=block;labelBackgroundColor=default;fontFamily=Verdana;fontSize=11;edgeStyle=elbowEdgeStyle;elbow=vertical;entryX=0.03;entryY=0.451;entryDx=0;entryDy=0;entryPerimeter=0;exitX=1.011;exitY=0.451;exitDx=0;exitDy=0;exitPerimeter=0;" parent="7Op2JaMXb7pChXdJnSNb-1" edge="1">
          <mxGeometry relative="1" as="geometry">
            <mxPoint x="54.999999999999886" y="274.78000000000003" as="sourcePoint" />
            <mxPoint x="225.18999999999994" y="274.78000000000003" as="targetPoint" />
            <Array as="points" />
          </mxGeometry>
        </mxCell>
        <mxCell id="_dpJ-08PZt-rfk6sdK-W-10" value="&lt;font face=&quot;Verdana&quot;&gt;&amp;nbsp;11. View select seat&lt;/font&gt;" style="html=1;align=left;spacingLeft=2;endArrow=block;rounded=0;edgeStyle=orthogonalEdgeStyle;curved=0;rounded=0;verticalAlign=middle;" parent="7Op2JaMXb7pChXdJnSNb-1" edge="1">
          <mxGeometry x="0.0333" y="-90" relative="1" as="geometry">
            <mxPoint x="42" y="216" as="sourcePoint" />
            <Array as="points">
              <mxPoint x="12" y="216" />
              <mxPoint x="12" y="253" />
            </Array>
            <mxPoint x="34" y="253" as="targetPoint" />
            <mxPoint as="offset" />
          </mxGeometry>
        </mxCell>
        <mxCell id="vvcB78ZaGYWaYG9tcJMQ-2" value="&amp;nbsp;17. Seat updated or failed" style="html=1;verticalAlign=middle;endArrow=open;dashed=1;endSize=8;edgeStyle=elbowEdgeStyle;elbow=vertical;curved=0;rounded=0;exitX=-0.039;exitY=0.728;exitDx=0;exitDy=0;exitPerimeter=0;entryX=1.011;entryY=0.725;entryDx=0;entryDy=0;entryPerimeter=0;labelBackgroundColor=default;fontSize=11;" parent="7Op2JaMXb7pChXdJnSNb-1" edge="1">
          <mxGeometry x="-0.0009" relative="1" as="geometry">
            <mxPoint x="224.4999999999999" y="307.6600000000001" as="sourcePoint" />
            <mxPoint x="54.999999999999886" y="307" as="targetPoint" />
            <mxPoint as="offset" />
          </mxGeometry>
        </mxCell>
        <mxCell id="_dpJ-08PZt-rfk6sdK-W-13" value="&lt;font face=&quot;Verdana&quot;&gt;&amp;nbsp;26. Ticket Booking View&lt;/font&gt;" style="html=1;align=left;spacingLeft=2;endArrow=block;rounded=0;edgeStyle=orthogonalEdgeStyle;curved=0;rounded=0;verticalAlign=middle;" parent="7Op2JaMXb7pChXdJnSNb-1" edge="1">
          <mxGeometry x="0.1011" y="-123" relative="1" as="geometry">
            <mxPoint x="45" y="404" as="sourcePoint" />
            <Array as="points">
              <mxPoint x="15" y="404" />
              <mxPoint x="15" y="441" />
            </Array>
            <mxPoint x="37" y="441" as="targetPoint" />
            <mxPoint as="offset" />
          </mxGeometry>
        </mxCell>
        <mxCell id="7Op2JaMXb7pChXdJnSNb-40" value="&lt;font face=&quot;Verdana&quot; style=&quot;font-size: 11px;&quot;&gt;&amp;nbsp;19. Confirm Payment&amp;nbsp;&lt;/font&gt;" style="html=1;align=left;spacingLeft=2;endArrow=block;rounded=0;edgeStyle=orthogonalEdgeStyle;curved=0;rounded=0;verticalAlign=middle;" parent="7Op2JaMXb7pChXdJnSNb-1" edge="1">
          <mxGeometry x="1" y="-19" relative="1" as="geometry">
            <mxPoint x="55" y="325" as="sourcePoint" />
            <Array as="points">
              <mxPoint x="85" y="325" />
              <mxPoint x="85" y="362" />
            </Array>
            <mxPoint x="63" y="362" as="targetPoint" />
            <mxPoint x="-8" y="2" as="offset" />
          </mxGeometry>
        </mxCell>
        <mxCell id="_dpJ-08PZt-rfk6sdK-W-7" value="&amp;nbsp; 6. createBooking()&amp;nbsp;" style="html=1;verticalAlign=middle;endArrow=block;labelBackgroundColor=default;fontFamily=Verdana;fontSize=11;edgeStyle=elbowEdgeStyle;elbow=vertical;entryX=0.03;entryY=0.451;entryDx=0;entryDy=0;entryPerimeter=0;exitX=1.011;exitY=0.451;exitDx=0;exitDy=0;exitPerimeter=0;" parent="7Op2JaMXb7pChXdJnSNb-1" edge="1">
          <mxGeometry relative="1" as="geometry">
            <mxPoint x="54.999999999999886" y="193.22000000000003" as="sourcePoint" />
            <mxPoint x="225.18999999999988" y="193.22000000000003" as="targetPoint" />
            <Array as="points" />
          </mxGeometry>
        </mxCell>
        <mxCell id="7Op2JaMXb7pChXdJnSNb-29" value="&amp;nbsp;2. Select flight&amp;nbsp;" style="html=1;verticalAlign=middle;endArrow=block;entryX=0;entryY=0.452;labelBackgroundColor=default;fontFamily=Verdana;fontSize=11;edgeStyle=elbowEdgeStyle;elbow=vertical;entryDx=0;entryDy=0;entryPerimeter=0;exitX=0.944;exitY=0.453;exitDx=0;exitDy=0;exitPerimeter=0;" parent="7Op2JaMXb7pChXdJnSNb-1" edge="1">
          <mxGeometry x="-0.0027" relative="1" as="geometry">
            <mxPoint x="-124.55999999999995" y="103.31999999999996" as="sourcePoint" />
            <mxPoint x="45" y="103.10000000000005" as="targetPoint" />
            <Array as="points" />
            <mxPoint as="offset" />
          </mxGeometry>
        </mxCell>
        <mxCell id="cuTVtsIik34U9PQ3IshA-3" value="&lt;div style=&quot;text-align: center;&quot;&gt;&amp;nbsp;3. Passenger&#39;s info form&amp;nbsp;&lt;br&gt;&lt;/div&gt;" style="html=1;align=left;spacingLeft=2;endArrow=block;rounded=0;edgeStyle=orthogonalEdgeStyle;curved=0;rounded=0;verticalAlign=middle;" edge="1" parent="7Op2JaMXb7pChXdJnSNb-1">
          <mxGeometry x="-0.8997" y="-17" relative="1" as="geometry">
            <mxPoint x="61" y="108" as="sourcePoint" />
            <Array as="points">
              <mxPoint x="91" y="108" />
              <mxPoint x="91" y="142" />
            </Array>
            <mxPoint x="55" y="142" as="targetPoint" />
            <mxPoint as="offset" />
          </mxGeometry>
        </mxCell>
        <mxCell id="cuTVtsIik34U9PQ3IshA-4" value="&lt;div style=&quot;text-align: center;&quot;&gt;&amp;nbsp;5. Validation&amp;nbsp;&lt;/div&gt;" style="html=1;align=left;spacingLeft=2;endArrow=block;rounded=0;edgeStyle=orthogonalEdgeStyle;curved=0;rounded=0;verticalAlign=middle;" edge="1" parent="7Op2JaMXb7pChXdJnSNb-1">
          <mxGeometry x="-0.8997" y="-17" relative="1" as="geometry">
            <mxPoint x="61" y="151" as="sourcePoint" />
            <Array as="points">
              <mxPoint x="61" y="151" />
              <mxPoint x="91" y="151" />
              <mxPoint x="91" y="182" />
            </Array>
            <mxPoint x="55" y="182" as="targetPoint" />
            <mxPoint as="offset" />
          </mxGeometry>
        </mxCell>
        <mxCell id="7Op2JaMXb7pChXdJnSNb-4" value="Controller" style="shape=umlLifeline;perimeter=lifelinePerimeter;whiteSpace=wrap;html=1;container=1;collapsible=0;recursiveResize=0;outlineConnect=0;rounded=1;shadow=0;comic=0;labelBackgroundColor=none;strokeWidth=1;fontFamily=Verdana;fontSize=12;align=center;fillColor=#dae8fc;strokeColor=#6c8ebf;" parent="1" vertex="1">
          <mxGeometry x="568" y="26" width="100" height="504" as="geometry" />
        </mxCell>
        <mxCell id="7Op2JaMXb7pChXdJnSNb-5" value="" style="html=1;points=[];perimeter=orthogonalPerimeter;rounded=0;shadow=0;comic=0;labelBackgroundColor=none;strokeWidth=1;fontFamily=Verdana;fontSize=12;align=center;fillColor=#dae8fc;strokeColor=#6c8ebf;" parent="7Op2JaMXb7pChXdJnSNb-4" vertex="1">
          <mxGeometry x="45" y="60" width="10" height="420" as="geometry" />
        </mxCell>
        <mxCell id="7Op2JaMXb7pChXdJnSNb-43" value="&amp;nbsp;7. Insert data&amp;nbsp;" style="html=1;verticalAlign=middle;endArrow=block;labelBackgroundColor=default;fontFamily=Verdana;fontSize=11;edgeStyle=elbowEdgeStyle;elbow=vertical;exitX=1.011;exitY=0.451;exitDx=0;exitDy=0;exitPerimeter=0;" parent="7Op2JaMXb7pChXdJnSNb-4" edge="1">
          <mxGeometry x="-0.0308" y="-1" relative="1" as="geometry">
            <mxPoint x="57.999999999999886" y="194.39000000000004" as="sourcePoint" />
            <mxPoint x="213" y="194.17000000000002" as="targetPoint" />
            <Array as="points" />
            <mxPoint as="offset" />
          </mxGeometry>
        </mxCell>
        <mxCell id="vvcB78ZaGYWaYG9tcJMQ-1" value="&lt;font face=&quot;Verdana&quot; style=&quot;font-size: 10px;&quot;&gt;&amp;nbsp;16. Seat updated or failed&lt;/font&gt;" style="html=1;verticalAlign=middle;endArrow=open;dashed=1;endSize=8;edgeStyle=elbowEdgeStyle;elbow=vertical;curved=0;rounded=0;exitX=-0.041;exitY=0.723;exitDx=0;exitDy=0;exitPerimeter=0;labelBackgroundColor=default;fontSize=11;entryX=0.9;entryY=0.805;entryDx=0;entryDy=0;entryPerimeter=0;" parent="7Op2JaMXb7pChXdJnSNb-4" edge="1">
          <mxGeometry x="-0.0085" relative="1" as="geometry">
            <mxPoint x="215.58999999999992" y="307.41999999999996" as="sourcePoint" />
            <mxPoint x="55" y="307.00000000000006" as="targetPoint" />
            <Array as="points">
              <mxPoint x="228" y="307.36" />
            </Array>
            <mxPoint as="offset" />
          </mxGeometry>
        </mxCell>
        <mxCell id="_dpJ-08PZt-rfk6sdK-W-4" value="&amp;nbsp;20. Checkout payment" style="html=1;verticalAlign=middle;endArrow=block;labelBackgroundColor=default;fontFamily=Verdana;fontSize=11;edgeStyle=elbowEdgeStyle;elbow=vertical;entryX=0.03;entryY=0.451;entryDx=0;entryDy=0;entryPerimeter=0;exitX=1.011;exitY=0.451;exitDx=0;exitDy=0;exitPerimeter=0;" parent="7Op2JaMXb7pChXdJnSNb-4" edge="1">
          <mxGeometry relative="1" as="geometry">
            <mxPoint x="-124.00000000000011" y="373" as="sourcePoint" />
            <mxPoint x="46.189999999999884" y="373" as="targetPoint" />
            <Array as="points" />
          </mxGeometry>
        </mxCell>
        <mxCell id="_dpJ-08PZt-rfk6sdK-W-5" value="&amp;nbsp;21. Checkout payment&amp;nbsp;" style="html=1;verticalAlign=middle;endArrow=block;labelBackgroundColor=default;fontFamily=Verdana;fontSize=11;edgeStyle=elbowEdgeStyle;elbow=vertical;exitX=1.011;exitY=0.451;exitDx=0;exitDy=0;exitPerimeter=0;" parent="7Op2JaMXb7pChXdJnSNb-4" edge="1">
          <mxGeometry x="-0.0308" y="-1" relative="1" as="geometry">
            <mxPoint x="63.189999999999884" y="373.22" as="sourcePoint" />
            <mxPoint x="218.19" y="373" as="targetPoint" />
            <Array as="points" />
            <mxPoint as="offset" />
          </mxGeometry>
        </mxCell>
        <mxCell id="7Op2JaMXb7pChXdJnSNb-39" value="&amp;nbsp;14. handleSeat()&amp;nbsp;" style="html=1;verticalAlign=middle;endArrow=block;labelBackgroundColor=default;fontFamily=Verdana;fontSize=11;edgeStyle=elbowEdgeStyle;elbow=vertical;exitX=1.011;exitY=0.451;exitDx=0;exitDy=0;exitPerimeter=0;" parent="7Op2JaMXb7pChXdJnSNb-4" edge="1">
          <mxGeometry x="-0.0308" y="-1" relative="1" as="geometry">
            <mxPoint x="60.999999999999886" y="275.28000000000003" as="sourcePoint" />
            <mxPoint x="216" y="275.06" as="targetPoint" />
            <Array as="points" />
            <mxPoint as="offset" />
          </mxGeometry>
        </mxCell>
        <mxCell id="_dpJ-08PZt-rfk6sdK-W-11" value="&lt;font face=&quot;Verdana&quot; style=&quot;font-size: 11px;&quot;&gt;&amp;nbsp;23. Success or failed&lt;/font&gt;" style="html=1;verticalAlign=middle;endArrow=open;dashed=1;endSize=8;edgeStyle=elbowEdgeStyle;elbow=vertical;curved=0;rounded=0;exitX=-0.041;exitY=0.723;exitDx=0;exitDy=0;exitPerimeter=0;labelBackgroundColor=default;fontSize=11;" parent="7Op2JaMXb7pChXdJnSNb-4" edge="1">
          <mxGeometry x="-0.0042" relative="1" as="geometry">
            <mxPoint x="214.58999999999992" y="403.05999999999995" as="sourcePoint" />
            <mxPoint x="60" y="403" as="targetPoint" />
            <Array as="points">
              <mxPoint x="212" y="403" />
            </Array>
            <mxPoint as="offset" />
          </mxGeometry>
        </mxCell>
        <mxCell id="_dpJ-08PZt-rfk6sdK-W-12" value="&lt;font face=&quot;Verdana&quot; style=&quot;font-size: 11px;&quot;&gt;&amp;nbsp;25. Success or failed&amp;nbsp;&lt;/font&gt;" style="html=1;verticalAlign=middle;endArrow=open;dashed=1;endSize=8;edgeStyle=elbowEdgeStyle;elbow=vertical;curved=0;rounded=0;exitX=-0.039;exitY=0.728;exitDx=0;exitDy=0;exitPerimeter=0;entryX=1.011;entryY=0.725;entryDx=0;entryDy=0;entryPerimeter=0;labelBackgroundColor=default;fontSize=11;" parent="7Op2JaMXb7pChXdJnSNb-4" edge="1">
          <mxGeometry x="-0.0009" relative="1" as="geometry">
            <mxPoint x="43.499999999999886" y="403.6600000000001" as="sourcePoint" />
            <mxPoint x="-126.00000000000011" y="403" as="targetPoint" />
            <mxPoint as="offset" />
            <Array as="points" />
          </mxGeometry>
        </mxCell>
        <mxCell id="7Op2JaMXb7pChXdJnSNb-45" value="&lt;font face=&quot;Verdana&quot; style=&quot;font-size: 11px;&quot;&gt;24. sendEmailTicket()&lt;/font&gt;" style="html=1;align=left;spacingLeft=2;endArrow=block;rounded=0;edgeStyle=orthogonalEdgeStyle;curved=0;rounded=0;verticalAlign=middle;" parent="7Op2JaMXb7pChXdJnSNb-4" edge="1">
          <mxGeometry x="-1" y="-17" relative="1" as="geometry">
            <mxPoint x="55" y="418" as="sourcePoint" />
            <Array as="points">
              <mxPoint x="85" y="418" />
              <mxPoint x="85" y="455" />
            </Array>
            <mxPoint x="63" y="455" as="targetPoint" />
            <mxPoint as="offset" />
          </mxGeometry>
        </mxCell>
        <mxCell id="7Op2JaMXb7pChXdJnSNb-44" value="&lt;font face=&quot;Verdana&quot; style=&quot;font-size: 11px;&quot;&gt;&amp;nbsp;9. Success or failed&lt;/font&gt;" style="html=1;verticalAlign=middle;endArrow=open;dashed=1;endSize=8;edgeStyle=elbowEdgeStyle;elbow=vertical;curved=0;rounded=0;exitX=-0.041;exitY=0.723;exitDx=0;exitDy=0;exitPerimeter=0;labelBackgroundColor=default;fontSize=11;" parent="7Op2JaMXb7pChXdJnSNb-4" edge="1">
          <mxGeometry x="-0.0042" relative="1" as="geometry">
            <mxPoint x="213.58999999999992" y="229.05999999999995" as="sourcePoint" />
            <mxPoint x="59" y="229" as="targetPoint" />
            <Array as="points">
              <mxPoint x="211" y="229" />
            </Array>
            <mxPoint as="offset" />
          </mxGeometry>
        </mxCell>
        <mxCell id="7Op2JaMXb7pChXdJnSNb-46" value="&lt;font face=&quot;Verdana&quot; style=&quot;font-size: 11px;&quot;&gt;&amp;nbsp;10. Success or failed&amp;nbsp;&lt;/font&gt;" style="html=1;verticalAlign=middle;endArrow=open;dashed=1;endSize=8;edgeStyle=elbowEdgeStyle;elbow=vertical;curved=0;rounded=0;exitX=-0.039;exitY=0.728;exitDx=0;exitDy=0;exitPerimeter=0;entryX=1.011;entryY=0.725;entryDx=0;entryDy=0;entryPerimeter=0;labelBackgroundColor=default;fontSize=11;" parent="7Op2JaMXb7pChXdJnSNb-4" edge="1">
          <mxGeometry x="-0.0009" relative="1" as="geometry">
            <mxPoint x="44.999999999999886" y="229.66000000000008" as="sourcePoint" />
            <mxPoint x="-124.50000000000011" y="229" as="targetPoint" />
            <mxPoint as="offset" />
          </mxGeometry>
        </mxCell>
        <mxCell id="7Op2JaMXb7pChXdJnSNb-6" value="DB" style="shape=umlLifeline;perimeter=lifelinePerimeter;whiteSpace=wrap;html=1;container=1;collapsible=0;recursiveResize=0;outlineConnect=0;rounded=1;shadow=0;comic=0;labelBackgroundColor=none;strokeWidth=1;fontFamily=Verdana;fontSize=12;align=center;fillColor=#dae8fc;strokeColor=#6c8ebf;" parent="1" vertex="1">
          <mxGeometry x="741" y="26" width="100" height="504" as="geometry" />
        </mxCell>
        <mxCell id="7Op2JaMXb7pChXdJnSNb-7" value="" style="html=1;points=[];perimeter=orthogonalPerimeter;rounded=0;shadow=0;comic=0;labelBackgroundColor=none;strokeWidth=1;fontFamily=Verdana;fontSize=12;align=center;fillColor=#dae8fc;strokeColor=#6c8ebf;" parent="7Op2JaMXb7pChXdJnSNb-6" vertex="1">
          <mxGeometry x="45" y="60" width="10" height="420" as="geometry" />
        </mxCell>
        <mxCell id="vvcB78ZaGYWaYG9tcJMQ-3" value="&lt;font face=&quot;Verdana&quot; style=&quot;font-size: 11px;&quot;&gt;&amp;nbsp;15. Validation&lt;/font&gt;" style="html=1;align=left;spacingLeft=2;endArrow=block;rounded=0;edgeStyle=orthogonalEdgeStyle;curved=0;rounded=0;verticalAlign=middle;" parent="7Op2JaMXb7pChXdJnSNb-6" edge="1">
          <mxGeometry x="-1" y="-17" relative="1" as="geometry">
            <mxPoint x="55" y="266" as="sourcePoint" />
            <Array as="points">
              <mxPoint x="85" y="266" />
              <mxPoint x="85" y="303" />
            </Array>
            <mxPoint x="63" y="303" as="targetPoint" />
            <mxPoint as="offset" />
          </mxGeometry>
        </mxCell>
        <mxCell id="_dpJ-08PZt-rfk6sdK-W-6" value="&lt;font face=&quot;Verdana&quot; style=&quot;font-size: 11px;&quot;&gt;&amp;nbsp;22. Validation&lt;/font&gt;" style="html=1;align=left;spacingLeft=2;endArrow=block;rounded=0;edgeStyle=orthogonalEdgeStyle;curved=0;rounded=0;verticalAlign=middle;" parent="7Op2JaMXb7pChXdJnSNb-6" edge="1">
          <mxGeometry x="-1" y="-17" relative="1" as="geometry">
            <mxPoint x="56.19" y="363" as="sourcePoint" />
            <Array as="points">
              <mxPoint x="86.19" y="363" />
              <mxPoint x="86.19" y="400" />
            </Array>
            <mxPoint x="64.19" y="400" as="targetPoint" />
            <mxPoint as="offset" />
          </mxGeometry>
        </mxCell>
        <mxCell id="_dpJ-08PZt-rfk6sdK-W-9" value="&lt;font face=&quot;Verdana&quot; style=&quot;font-size: 11px;&quot;&gt;&amp;nbsp;8. Validation&lt;/font&gt;" style="html=1;align=left;spacingLeft=2;endArrow=block;rounded=0;edgeStyle=orthogonalEdgeStyle;curved=0;rounded=0;verticalAlign=middle;" parent="7Op2JaMXb7pChXdJnSNb-6" edge="1">
          <mxGeometry x="-1" y="-17" relative="1" as="geometry">
            <mxPoint x="55" y="173" as="sourcePoint" />
            <Array as="points">
              <mxPoint x="85" y="173" />
              <mxPoint x="85" y="210" />
            </Array>
            <mxPoint x="63" y="210" as="targetPoint" />
            <mxPoint as="offset" />
          </mxGeometry>
        </mxCell>
        <mxCell id="7Op2JaMXb7pChXdJnSNb-8" value="Passenger" style="shape=umlLifeline;perimeter=lifelinePerimeter;whiteSpace=wrap;html=1;container=1;collapsible=0;recursiveResize=0;outlineConnect=0;rounded=1;shadow=0;comic=0;labelBackgroundColor=none;strokeWidth=1;fontFamily=Verdana;fontSize=12;align=center;fillColor=#dae8fc;strokeColor=#6c8ebf;" parent="1" vertex="1">
          <mxGeometry x="209" y="26" width="100" height="504" as="geometry" />
        </mxCell>
        <mxCell id="7Op2JaMXb7pChXdJnSNb-9" value="" style="html=1;points=[];perimeter=orthogonalPerimeter;rounded=0;shadow=0;comic=0;labelBackgroundColor=none;strokeWidth=1;fontFamily=Verdana;fontSize=12;align=center;fillColor=#dae8fc;strokeColor=#6c8ebf;" parent="7Op2JaMXb7pChXdJnSNb-8" vertex="1">
          <mxGeometry x="45" y="60" width="10" height="420" as="geometry" />
        </mxCell>
        <mxCell id="7Op2JaMXb7pChXdJnSNb-41" value="&amp;nbsp;12. Select seat&amp;nbsp;" style="html=1;verticalAlign=middle;endArrow=block;labelBackgroundColor=default;fontFamily=Verdana;fontSize=11;edgeStyle=elbowEdgeStyle;elbow=vertical;" parent="7Op2JaMXb7pChXdJnSNb-8" edge="1">
          <mxGeometry x="-0.0027" relative="1" as="geometry">
            <mxPoint x="55" y="275" as="sourcePoint" />
            <mxPoint x="221" y="275" as="targetPoint" />
            <Array as="points" />
            <mxPoint as="offset" />
          </mxGeometry>
        </mxCell>
        <mxCell id="_dpJ-08PZt-rfk6sdK-W-2" value="&amp;nbsp;18. Checkout Payment&amp;nbsp;" style="html=1;verticalAlign=middle;endArrow=block;entryX=0;entryY=0.452;labelBackgroundColor=default;fontFamily=Verdana;fontSize=11;edgeStyle=elbowEdgeStyle;elbow=vertical;entryDx=0;entryDy=0;entryPerimeter=0;exitX=0.944;exitY=0.453;exitDx=0;exitDy=0;exitPerimeter=0;" parent="7Op2JaMXb7pChXdJnSNb-8" edge="1">
          <mxGeometry x="-0.0027" relative="1" as="geometry">
            <mxPoint x="55.00000000000006" y="333.21999999999997" as="sourcePoint" />
            <mxPoint x="224.56" y="333.00000000000006" as="targetPoint" />
            <Array as="points" />
            <mxPoint as="offset" />
          </mxGeometry>
        </mxCell>
        <mxCell id="7Op2JaMXb7pChXdJnSNb-11" value="&amp;nbsp;4. Fill &amp;amp; Submit&amp;nbsp;" style="html=1;verticalAlign=middle;endArrow=block;entryX=0;entryY=0.452;labelBackgroundColor=default;fontFamily=Verdana;fontSize=11;edgeStyle=elbowEdgeStyle;elbow=vertical;entryDx=0;entryDy=0;entryPerimeter=0;exitX=0.944;exitY=0.453;exitDx=0;exitDy=0;exitPerimeter=0;" parent="7Op2JaMXb7pChXdJnSNb-8" edge="1">
          <mxGeometry x="-0.0027" relative="1" as="geometry">
            <mxPoint x="55.00000000000006" y="158.21999999999997" as="sourcePoint" />
            <mxPoint x="224.56" y="158.00000000000006" as="targetPoint" />
            <Array as="points" />
            <mxPoint as="offset" />
          </mxGeometry>
        </mxCell>
      </root>
    </mxGraphModel>
  </diagram>
</mxfile>
